<svg xmlns="http://www.w3.org/2000/svg" xmlns:xlink="http://www.w3.org/1999/xlink" width="1180" height="260.52"><rect width="1180" height="260.52" rx="0" ry="0" class="a"/><svg height="260.52" viewBox="0 0 118 26.052" width="1180" xmlns="http://www.w3.org/2000/svg" xmlns:xlink="http://www.w3.org/1999/xlink"><style>@keyframes r{0%{transform:translateX(0)}2.6%{transform:translateX(-118px)}2.7%{transform:translateX(-472px)}3%{transform:translateX(-708px)}3.1%{transform:translateX(-1180px)}3.8%{transform:translateX(-1534px)}11.4%{transform:translateX(-1652px)}12.1%{transform:translateX(-1770px)}14.5%{transform:translateX(-1888px)}15.8%{transform:translateX(-2006px)}19.2%{transform:translateX(-2124px)}21%{transform:translateX(-2242px)}22.3%{transform:translateX(-2360px)}22.8%{transform:translateX(-2478px)}23.3%{transform:translateX(-2596px)}24.4%{transform:translateX(-2714px)}25.6%{transform:translateX(-3068px)}30.2%{transform:translateX(-3186px)}31.7%{transform:translateX(-3304px)}33.8%{transform:translateX(-3422px)}34.3%{transform:translateX(-3540px)}40%{transform:translateX(-3776px)}40.1%{transform:translateX(-4130px)}45.2%{transform:translateX(-4248px)}54.4%{transform:translateX(-4366px)}55%{transform:translateX(-4484px)}55.5%{transform:translateX(-4602px)}56.2%{transform:translateX(-4720px)}57.8%{transform:translateX(-4838px)}59.6%{transform:translateX(-4956px)}64.4%{transform:translateX(-5074px)}72.9%{transform:translateX(-5192px)}73.4%{transform:translateX(-5310px)}74%{transform:translateX(-5428px)}75.8%{transform:translateX(-5546px)}76.4%{transform:translateX(-5664px)}77%{transform:translateX(-5782px)}77.8%{transform:translateX(-5900px)}79.4%{transform:translateX(-6018px)}82%{transform:translateX(-6136px)}85.6%{transform:translateX(-6254px)}98.4%{transform:translateX(-6608px)}98.6%{transform:translateX(-7080px)}98.7%{transform:translateX(-7198px)}99.1%{transform:translateX(-7670px)}99.2%{transform:translateX(-8024px)}99.9%{transform:translateX(-8378px)}to{transform:translateX(-8496px)}}.a{fill:#282d35}.c,.d{fill:#b9c0cb;white-space:pre}.d{fill:#b9bfca}.e{fill:#444}.f{white-space:pre}.g{fill:#71bef2}.h{fill:#444;white-space:pre}.i{fill:#a8cc8c}.j,.k{fill:#71bef2;white-space:pre}.k{fill:#a8cc8c}.l{fill:#b9bfca}.m,.n{white-space:pre}.m{fill:#e88388;font-weight:700}.n{fill:#b9c0cb;text-decoration:underline}</style><g font-family="Monaco,Consolas,Menlo,'Bitstream Vera Sans Mono','Powerline Symbols',monospace" font-size="1.67"><defs><symbol id="1">0<text y="1.67" class="c"></text>0<text x="1.002" y="1.67" class="d"></text><path class="e" d="M3.006 0h2v2.171h-2z"/><text x="3.006" y="1.67" class="f"></text><path class="e" d="M5.01 0h15v2.171h-15z"/><text x="5.01" y="1.67" class="d">nicola@wiumlie</text><path class="g" d="M20.04 0h2v2.171h-2z"/><text x="20.04" y="1.67" class="h"></text><path class="g" d="M22.044 0h45v2.171h-45z"/><text x="22.044" y="1.67" class="d"> ~/workspace/memori/examples/python-minimal</text><path class="i" d="M67.134 0h2v2.171h-2z"/><text x="67.134" y="1.67" class="j"></text><path class="i" d="M69.138 0h10v2.171h-10z"/><text x="69.138" y="1.67" class="f">  main</text><text x="79.158" y="1.67" class="k"></text><text x="83.166" y="1.67" class="f"></text>0<text x="84.168" y="1.67" class="k"></text>0<text x="87.174" y="1.67" class="d"></text><path class="l" d="M88.176 0h19v2.171h-19z"/><text x="88.176" y="1.67" class="h">python-minimal </text><path class="l" d="M107.214 0h1v2.171h-1z"/><text x="107.214" y="1.67" class="j"></text><path class="g" d="M108.216 0h10v2.171h-10z"/><text x="108.216" y="1.67" class="d">12:15:00</text></symbol><symbol id="2">0<text y="1.67" class="c"></text>0<text x="1.002" y="1.67" class="d"></text><path class="e" d="M3.006 0h2v2.171h-2z"/><text x="3.006" y="1.67" class="f"></text><path class="e" d="M5.01 0h15v2.171h-15z"/><text x="5.01" y="1.67" class="d">nicola@wiumlie</text><path class="g" d="M20.04 0h2v2.171h-2z"/><text x="20.04" y="1.67" class="h"></text><path class="g" d="M22.044 0h45v2.171h-45z"/><text x="22.044" y="1.67" class="d"> ~/workspace/memori/examples/python-minimal</text><path class="i" d="M67.134 0h2v2.171h-2z"/><text x="67.134" y="1.67" class="j"></text><path class="i" d="M69.138 0h10v2.171h-10z"/><text x="69.138" y="1.67" class="f">  main</text><text x="79.158" y="1.67" class="k"></text><text x="81.162" y="1.67" class="m">a</text><text x="83.166" y="1.67" class="f"></text>0<text x="84.168" y="1.67" class="k"></text>0<text x="87.174" y="1.67" class="d"></text><path class="l" d="M88.176 0h19v2.171h-19z"/><text x="88.176" y="1.67" class="h">python-minimal </text><path class="l" d="M107.214 0h1v2.171h-1z"/><text x="107.214" y="1.67" class="j"></text><path class="g" d="M108.216 0h10v2.171h-10z"/><text x="108.216" y="1.67" class="d">12:15:00</text></symbol><symbol id="3">0<text y="1.67" class="c"></text>0<text x="1.002" y="1.67" class="d"></text><path class="e" d="M3.006 0h2v2.171h-2z"/><text x="3.006" y="1.67" class="f"></text><path class="e" d="M5.01 0h15v2.171h-15z"/><text x="5.01" y="1.67" class="d">nicola@wiumlie</text><path class="g" d="M20.04 0h2v2.171h-2z"/><text x="20.04" y="1.67" class="h"></text><path class="g" d="M22.044 0h45v2.171h-45z"/><text x="22.044" y="1.67" class="d"> ~/workspace/memori/examples/python-minimal</text><path class="i" d="M67.134 0h2v2.171h-2z"/><text x="67.134" y="1.67" class="j"></text><path class="i" d="M69.138 0h10v2.171h-10z"/><text x="69.138" y="1.67" class="f">  main</text><text x="79.158" y="1.67" class="k"></text><text x="81.162" y="1.67" class="k">python</text></symbol><symbol id="4"><text y="1.67" class="c">python</text><text x="18.036" y="1.67" class="c">python3-config</text><text x="36.072" y="1.67" class="c">python3.8-config</text><text x="54.108" y="1.67" class="c">python3.9-config</text></symbol><symbol id="5"><text y="1.67" class="c">python3</text><text x="18.036" y="1.67" class="c">python3.8</text><text x="36.072" y="1.67" class="c">python3.9</text></symbol><symbol id="6">0<text y="1.67" class="c"></text>0<text x="1.002" y="1.67" class="d"></text><path class="e" d="M3.006 0h2v2.171h-2z"/><text x="3.006" y="1.67" class="f"></text><path class="e" d="M5.01 0h15v2.171h-15z"/><text x="5.01" y="1.67" class="d">nicola@wiumlie</text><path class="g" d="M20.04 0h2v2.171h-2z"/><text x="20.04" y="1.67" class="h"></text><path class="g" d="M22.044 0h45v2.171h-45z"/><text x="22.044" y="1.67" class="d"> ~/workspace/memori/examples/python-minimal</text><path class="i" d="M67.134 0h2v2.171h-2z"/><text x="67.134" y="1.67" class="j"></text><path class="i" d="M69.138 0h10v2.171h-10z"/><text x="69.138" y="1.67" class="f">  main</text><text x="79.158" y="1.67" class="k"></text><text x="81.162" y="1.67" class="k">python</text><text x="88.176" y="1.67" class="n">example.py</text></symbol><symbol id="7"><text y="1.67" class="c">Nicola:</text><text x="8.016" y="1.67" class="c">Ciao,</text><text x="14.028" y="1.67" class="c">io</text><text x="17.034" y="1.67" class="c">sono</text><text x="22.044" y="1.67" class="c">Nicola,</text><text x="30.06" y="1.67" class="c">c&apos;è</text><text x="34.068" y="1.67" class="c">qualcosa</text><text x="43.086" y="1.67" class="c">che</text><text x="47.094" y="1.67" class="c">vorresti</text><text x="56.112" y="1.67" class="c">chiedermi?</text></symbol><symbol id="8"><text y="1.67" class="c">You:</text></symbol><symbol id="9"><text y="1.67" class="c">You:</text><text x="5.01" y="1.67" class="c">c</text></symbol><symbol id="10"><text y="1.67" class="c">You:</text><text x="5.01" y="1.67" class="c">ciao!</text></symbol><symbol id="11"><text y="1.67" class="c">Nicola:</text><text x="8.016" y="1.67" class="c">Ohilà</text><text x="14.028" y="1.67" class="c">😄.</text><text x="18.036" y="1.67" class="c">C&apos;è</text><text x="22.044" y="1.67" class="c">qualcos&apos;altro</text><text x="36.072" y="1.67" class="c">che</text><text x="40.08" y="1.67" class="c">vorresti</text><text x="49.098" y="1.67" class="c">chiedermi?</text></symbol><symbol id="12"><text y="1.67" class="c">You:</text><text x="5.01" y="1.67" class="c">chi</text></symbol><symbol id="13"><text y="1.67" class="c">You:</text><text x="5.01" y="1.67" class="c">chi</text><text x="9.018" y="1.67" class="c">sei?</text></symbol><symbol id="14"><text y="1.67" class="c">Nicola:</text><text x="8.016" y="1.67" class="c">Sono</text><text x="13.026" y="1.67" class="c">Nicola</text><text x="20.04" y="1.67" class="c">Zambello.</text><text x="30.06" y="1.67" class="c">Sviluppatore</text><text x="43.086" y="1.67" class="c">web,</text><text x="48.096" y="1.67" class="c">attivista</text><text x="58.116" y="1.67" class="c">ed</text><text x="61.122" y="1.67" class="c">avventuriero</text><text x="74.148" y="1.67" class="c">di</text><text x="77.154" y="1.67" class="c">natura.</text><text x="85.17" y="1.67" class="c">Chiedimi</text><text x="94.188" y="1.67" class="c">qualcosa</text><text x="103.206" y="1.67" class="c">su</text><text x="106.212" y="1.67" class="c">di</text><text x="109.218" y="1.67" class="c">me</text><text x="112.224" y="1.67" class="c">o</text><text x="114.228" y="1.67" class="c">parl</text></symbol><symbol id="15"><text y="1.67" class="c">iamo</text><text x="5.01" y="1.67" class="c">di</text><text x="8.016" y="1.67" class="c">green</text><text x="14.028" y="1.67" class="c">web,</text><text x="19.038" y="1.67" class="c">sull&apos;etica</text><text x="30.06" y="1.67" class="c">o</text><text x="32.064" y="1.67" class="c">sull&apos;open</text><text x="42.084" y="1.67" class="c">source.</text></symbol><symbol id="16"><text y="1.67" class="c">You:</text><text x="5.01" y="1.67" class="c">^CTraceback</text><text x="17.034" y="1.67" class="c">(most</text><text x="23.046" y="1.67" class="c">recent</text><text x="30.06" y="1.67" class="c">call</text><text x="35.07" y="1.67" class="c">last):</text></symbol><symbol id="17"><text x="2.004" y="1.67" class="c">File</text><text x="7.014" y="1.67" class="c">&quot;example.py&quot;,</text><text x="21.042" y="1.67" class="c">line</text><text x="26.052" y="1.67" class="c">22,</text><text x="30.06" y="1.67" class="c">in</text><text x="33.066" y="1.67" class="c">&lt;module&gt;</text></symbol><symbol id="18"><text x="4.008" y="1.67" class="c">question</text><text x="13.026" y="1.67" class="c">=</text><text x="15.03" y="1.67" class="c">input(&quot;You:</text><text x="27.054" y="1.67" class="c">&quot;)</text></symbol><symbol id="19"><text y="1.67" class="c">KeyboardInterrupt</text></symbol><symbol id="20">0<text y="1.67" class="c"></text>0<text x="1.002" y="1.67" class="d"></text><path class="e" d="M3.006 0h2v2.171h-2z"/><text x="3.006" y="1.67" class="f"></text><path class="e" d="M5.01 0h15v2.171h-15z"/><text x="5.01" y="1.67" class="d">nicola@wiumlie</text><path class="g" d="M20.04 0h2v2.171h-2z"/><text x="20.04" y="1.67" class="h"></text><path class="g" d="M22.044 0h45v2.171h-45z"/><text x="22.044" y="1.67" class="d"> ~/workspace/memori/examples/python-minimal</text><path class="i" d="M67.134 0h2v2.171h-2z"/><text x="67.134" y="1.67" class="j"></text><path class="i" d="M69.138 0h10v2.171h-10z"/><text x="69.138" y="1.67" class="f">  main</text><text x="79.158" y="1.67" class="k"></text><text x="83.166" y="1.67" class="f"></text>0<text x="84.168" y="1.67" style="white-space:pre" fill="#e88388"></text>0<text x="87.174" y="1.67" class="d"></text><path class="l" d="M88.176 0h19v2.171h-19z"/><text x="88.176" y="1.67" class="h">python-minimal </text><path class="l" d="M107.214 0h1v2.171h-1z"/><text x="107.214" y="1.67" class="j"></text><path class="g" d="M108.216 0h10v2.171h-10z"/><text x="108.216" y="1.67" class="d">12:15:12</text></symbol><symbol id="a"><path fill="transparent" d="M0 0h118v13H0z"/></symbol><symbol id="b"><path fill="#6f7683" d="M0 0h1.102v2.171H0z"/></symbol></defs><path class="a" d="M0 0h118v26.052H0z"/><g style="animation-duration:12.902224s;animation-iteration-count:infinite;animation-name:r;animation-timing-function:steps(1,end)"><svg width="8614"><svg><use xlink:href="#a"/><use xlink:href="#b" x="-.004"/></svg><svg x="118"><use xlink:href="#a"/><use xlink:href="#b" x="-.004"/></svg><svg x="236"><use xlink:href="#a"/><use xlink:href="#b" x="-.004"/></svg><svg x="354"><use xlink:href="#a"/><use xlink:href="#b" x="-.004"/></svg><svg x="472"><use xlink:href="#a"/><use xlink:href="#b" x="-.004"/></svg><svg x="590"><use xlink:href="#a"/><use xlink:href="#b" x="-.004"/></svg><svg x="708"><use xlink:href="#a"/><use xlink:href="#b" x="-.004"/></svg><svg x="826"><use xlink:href="#a"/><use xlink:href="#b" x="-.004"/></svg><svg x="944"><use xlink:href="#a"/><use xlink:href="#b" x="-.004"/></svg><svg x="1062"><use xlink:href="#a"/><use xlink:href="#b" x="-.004"/></svg><svg x="1180"><use xlink:href="#a"/><use xlink:href="#b" x="-.004"/></svg><svg x="1298"><use xlink:href="#a"/><use xlink:href="#b" x="80.996"/><use xlink:href="#1"/></svg><svg x="1416"><use xlink:href="#a"/><use xlink:href="#b" x="80.996"/><use xlink:href="#1"/></svg><svg x="1534"><use xlink:href="#a"/><use xlink:href="#b" x="80.996"/><use xlink:href="#1"/></svg><svg x="1652"><use xlink:href="#a"/><use xlink:href="#b" x="81.996"/><use xlink:href="#2"/></svg><svg x="1770"><use xlink:href="#a"/><use xlink:href="#b" x="82.996"/>0<text y="1.67" class="c"></text>0<text x="1.002" y="1.67" class="d"></text><path class="e" d="M3.006 0h2v2.171h-2z"/><text x="3.006" y="1.67" class="f"></text><path class="e" d="M5.01 0h15v2.171h-15z"/><text x="5.01" y="1.67" class="d">nicola@wiumlie</text><path class="g" d="M20.04 0h2v2.171h-2z"/><text x="20.04" y="1.67" class="h"></text><path class="g" d="M22.044 0h45v2.171h-45z"/><text x="22.044" y="1.67" class="d"> ~/workspace/memori/examples/python-minimal</text><path class="i" d="M67.134 0h2v2.171h-2z"/><text x="67.134" y="1.67" class="j"></text><path class="i" d="M69.138 0h10v2.171h-10z"/><text x="69.138" y="1.67" class="f">  main</text><text x="79.158" y="1.67" class="k"></text><text x="81.162" y="1.67" class="k">as</text></svg><svg x="1888"><use xlink:href="#a"/><use xlink:href="#b" x="81.996"/><use xlink:href="#2"/></svg><svg x="2006"><use xlink:href="#a"/><use xlink:href="#b" x="80.996"/><use xlink:href="#1"/></svg><svg x="2124"><use xlink:href="#a"/><use xlink:href="#b" x="81.996"/>0<text y="1.67" class="c"></text>0<text x="1.002" y="1.67" class="d"></text><path class="e" d="M3.006 0h2v2.171h-2z"/><text x="3.006" y="1.67" class="f"></text><path class="e" d="M5.01 0h15v2.171h-15z"/><text x="5.01" y="1.67" class="d">nicola@wiumlie</text><path class="g" d="M20.04 0h2v2.171h-2z"/><text x="20.04" y="1.67" class="h"></text><path class="g" d="M22.044 0h45v2.171h-45z"/><text x="22.044" y="1.67" class="d"> ~/workspace/memori/examples/python-minimal</text><path class="i" d="M67.134 0h2v2.171h-2z"/><text x="67.134" y="1.67" class="j"></text><path class="i" d="M69.138 0h10v2.171h-10z"/><text x="69.138" y="1.67" class="f">  main</text><text x="79.158" y="1.67" class="k"></text><text x="81.162" y="1.67" class="m">p</text><text x="83.166" y="1.67" class="f"></text>0<text x="84.168" y="1.67" class="k"></text>0<text x="87.174" y="1.67" class="d"></text><path class="l" d="M88.176 0h19v2.171h-19z"/><text x="88.176" y="1.67" class="h">python-minimal </text><path class="l" d="M107.214 0h1v2.171h-1z"/><text x="107.214" y="1.67" class="j"></text><path class="g" d="M108.216 0h10v2.171h-10z"/><text x="108.216" y="1.67" class="d">12:15:00</text></svg><svg x="2242"><use xlink:href="#a"/><use xlink:href="#b" x="82.996"/>0<text y="1.67" class="c"></text>0<text x="1.002" y="1.67" class="d"></text><path class="e" d="M3.006 0h2v2.171h-2z"/><text x="3.006" y="1.67" class="f"></text><path class="e" d="M5.01 0h15v2.171h-15z"/><text x="5.01" y="1.67" class="d">nicola@wiumlie</text><path class="g" d="M20.04 0h2v2.171h-2z"/><text x="20.04" y="1.67" class="h"></text><path class="g" d="M22.044 0h45v2.171h-45z"/><text x="22.044" y="1.67" class="d"> ~/workspace/memori/examples/python-minimal</text><path class="i" d="M67.134 0h2v2.171h-2z"/><text x="67.134" y="1.67" class="j"></text><path class="i" d="M69.138 0h10v2.171h-10z"/><text x="69.138" y="1.67" class="f">  main</text><text x="79.158" y="1.67" class="k"></text><text x="81.162" y="1.67" class="m">py</text></svg><svg x="2360"><use xlink:href="#a"/><use xlink:href="#b" x="83.996"/>0<text y="1.67" class="c"></text>0<text x="1.002" y="1.67" class="d"></text><path class="e" d="M3.006 0h2v2.171h-2z"/><text x="3.006" y="1.67" class="f"></text><path class="e" d="M5.01 0h15v2.171h-15z"/><text x="5.01" y="1.67" class="d">nicola@wiumlie</text><path class="g" d="M20.04 0h2v2.171h-2z"/><text x="20.04" y="1.67" class="h"></text><path class="g" d="M22.044 0h45v2.171h-45z"/><text x="22.044" y="1.67" class="d"> ~/workspace/memori/examples/python-minimal</text><path class="i" d="M67.134 0h2v2.171h-2z"/><text x="67.134" y="1.67" class="j"></text><path class="i" d="M69.138 0h10v2.171h-10z"/><text x="69.138" y="1.67" class="f">  main</text><text x="79.158" y="1.67" class="k"></text><text x="81.162" y="1.67" class="m">pyt</text></svg><svg x="2478"><use xlink:href="#a"/><use xlink:href="#b" x="84.996"/>0<text y="1.67" class="c"></text>0<text x="1.002" y="1.67" class="d"></text><path class="e" d="M3.006 0h2v2.171h-2z"/><text x="3.006" y="1.67" class="f"></text><path class="e" d="M5.01 0h15v2.171h-15z"/><text x="5.01" y="1.67" class="d">nicola@wiumlie</text><path class="g" d="M20.04 0h2v2.171h-2z"/><text x="20.04" y="1.67" class="h"></text><path class="g" d="M22.044 0h45v2.171h-45z"/><text x="22.044" y="1.67" class="d"> ~/workspace/memori/examples/python-minimal</text><path class="i" d="M67.134 0h2v2.171h-2z"/><text x="67.134" y="1.67" class="j"></text><path class="i" d="M69.138 0h10v2.171h-10z"/><text x="69.138" y="1.67" class="f">  main</text><text x="79.158" y="1.67" class="k"></text><text x="81.162" y="1.67" class="m">pyth</text></svg><svg x="2596"><use xlink:href="#a"/><use xlink:href="#b" x="85.996"/>0<text y="1.67" class="c"></text>0<text x="1.002" y="1.67" class="d"></text><path class="e" d="M3.006 0h2v2.171h-2z"/><text x="3.006" y="1.67" class="f"></text><path class="e" d="M5.01 0h15v2.171h-15z"/><text x="5.01" y="1.67" class="d">nicola@wiumlie</text><path class="g" d="M20.04 0h2v2.171h-2z"/><text x="20.04" y="1.67" class="h"></text><path class="g" d="M22.044 0h45v2.171h-45z"/><text x="22.044" y="1.67" class="d"> ~/workspace/memori/examples/python-minimal</text><path class="i" d="M67.134 0h2v2.171h-2z"/><text x="67.134" y="1.67" class="j"></text><path class="i" d="M69.138 0h10v2.171h-10z"/><text x="69.138" y="1.67" class="f">  main</text><text x="79.158" y="1.67" class="k"></text><text x="81.162" y="1.67" class="m">pytho</text></svg><svg x="2714"><use xlink:href="#a"/><use xlink:href="#b" x="86.996"/><use xlink:href="#3"/></svg><svg x="2832"><use xlink:href="#a"/><use xlink:href="#b" x="86.996"/><use xlink:href="#3"/></svg><svg x="2950"><use xlink:href="#a"/><use xlink:href="#b" x="-.004" y="2.146"/><use xlink:href="#3"/></svg><svg x="3068"><use xlink:href="#a"/><use xlink:href="#b" x="86.996"/><use xlink:href="#3"/><use xlink:href="#4" y="2.171"/><use xlink:href="#5" y="4.342"/></svg><svg x="3186"><use xlink:href="#a"/><use xlink:href="#b" x="87.996"/><use xlink:href="#3"/><use xlink:href="#4" y="2.171"/><use xlink:href="#5" y="4.342"/></svg><svg x="3304"><use xlink:href="#a"/><use xlink:href="#b" x="88.996"/>0<text y="1.67" class="c"></text>0<text x="1.002" y="1.67" class="d"></text><path class="e" d="M3.006 0h2v2.171h-2z"/><text x="3.006" y="1.67" class="f"></text><path class="e" d="M5.01 0h15v2.171h-15z"/><text x="5.01" y="1.67" class="d">nicola@wiumlie</text><path class="g" d="M20.04 0h2v2.171h-2z"/><text x="20.04" y="1.67" class="h"></text><path class="g" d="M22.044 0h45v2.171h-45z"/><text x="22.044" y="1.67" class="d"> ~/workspace/memori/examples/python-minimal</text><path class="i" d="M67.134 0h2v2.171h-2z"/><text x="67.134" y="1.67" class="j"></text><path class="i" d="M69.138 0h10v2.171h-10z"/><text x="69.138" y="1.67" class="f">  main</text><text x="79.158" y="1.67" class="k"></text><text x="81.162" y="1.67" class="k">python</text><text x="88.176" y="1.67" class="n">e</text><use xlink:href="#4" y="2.171"/><use xlink:href="#5" y="4.342"/></svg><svg x="3422"><use xlink:href="#a"/><use xlink:href="#b" x="89.996"/>0<text y="1.67" class="c"></text>0<text x="1.002" y="1.67" class="d"></text><path class="e" d="M3.006 0h2v2.171h-2z"/><text x="3.006" y="1.67" class="f"></text><path class="e" d="M5.01 0h15v2.171h-15z"/><text x="5.01" y="1.67" class="d">nicola@wiumlie</text><path class="g" d="M20.04 0h2v2.171h-2z"/><text x="20.04" y="1.67" class="h"></text><path class="g" d="M22.044 0h45v2.171h-45z"/><text x="22.044" y="1.67" class="d"> ~/workspace/memori/examples/python-minimal</text><path class="i" d="M67.134 0h2v2.171h-2z"/><text x="67.134" y="1.67" class="j"></text><path class="i" d="M69.138 0h10v2.171h-10z"/><text x="69.138" y="1.67" class="f">  main</text><text x="79.158" y="1.67" class="k"></text><text x="81.162" y="1.67" class="k">python</text><text x="88.176" y="1.67" class="n">ex</text><use xlink:href="#4" y="2.171"/><use xlink:href="#5" y="4.342"/></svg><svg x="3540"><use xlink:href="#a"/><use xlink:href="#b" x="98.996"/><use xlink:href="#6"/><use xlink:href="#4" y="2.171"/><use xlink:href="#5" y="4.342"/></svg><svg x="3658"><use xlink:href="#a"/><use xlink:href="#b" x="97.996"/><use xlink:href="#6"/><use xlink:href="#4" y="2.171"/><use xlink:href="#5" y="4.342"/></svg><svg x="3776"><use xlink:href="#a"/><use xlink:href="#b" x="97.996"/><use xlink:href="#6"/><use xlink:href="#4" y="2.171"/><use xlink:href="#5" y="4.342"/></svg><svg x="3894"><use xlink:href="#a"/><use xlink:href="#b" x="-.004" y="2.146"/><use xlink:href="#6"/></svg><svg x="4012"><use xlink:href="#a"/><use xlink:href="#b" x="-.004" y="2.146"/><use xlink:href="#6"/></svg><svg x="4130"><use xlink:href="#a"/><use xlink:href="#b" x="-.004" y="2.146"/><use xlink:href="#6"/></svg><svg x="4248"><use xlink:href="#a"/><use xlink:href="#b" x="4.996" y="4.317"/><use xlink:href="#6"/><use xlink:href="#7" y="2.171"/><use xlink:href="#8" y="4.342"/></svg><svg x="4366"><use xlink:href="#a"/><use xlink:href="#b" x="5.996" y="4.317"/><use xlink:href="#6"/><use xlink:href="#7" y="2.171"/><use xlink:href="#9" y="4.342"/></svg><svg x="4484"><use xlink:href="#a"/><use xlink:href="#b" x="6.996" y="4.317"/><use xlink:href="#6"/><use xlink:href="#7" y="2.171"/><text y="6.012" class="c">You:</text><text x="5.01" y="6.012" class="c">ci</text></svg><svg x="4602"><use xlink:href="#a"/><use xlink:href="#b" x="7.996" y="4.317"/><use xlink:href="#6"/><use xlink:href="#7" y="2.171"/><text y="6.012" class="c">You:</text><text x="5.01" y="6.012" class="c">cia</text></svg><svg x="4720"><use xlink:href="#a"/><use xlink:href="#b" x="8.996" y="4.317"/><use xlink:href="#6"/><use xlink:href="#7" y="2.171"/><text y="6.012" class="c">You:</text><text x="5.01" y="6.012" class="c">ciao</text></svg><svg x="4838"><use xlink:href="#a"/><use xlink:href="#b" x="9.996" y="4.317"/><use xlink:href="#6"/><use xlink:href="#7" y="2.171"/><use xlink:href="#10" y="4.342"/></svg><svg x="4956"><use xlink:href="#a"/><use xlink:href="#b" x="-.004" y="6.488"/><use xlink:href="#6"/><use xlink:href="#7" y="2.171"/><use xlink:href="#10" y="4.342"/></svg><svg x="5074"><use xlink:href="#a"/><use xlink:href="#b" x="4.996" y="8.659"/><use xlink:href="#6"/><use xlink:href="#7" y="2.171"/><use xlink:href="#10" y="4.342"/><use xlink:href="#11" y="6.513"/><use xlink:href="#8" y="8.684"/></svg><svg x="5192"><use xlink:href="#a"/><use xlink:href="#b" x="5.996" y="8.659"/><use xlink:href="#6"/><use xlink:href="#7" y="2.171"/><use xlink:href="#10" y="4.342"/><use xlink:href="#11" y="6.513"/><use xlink:href="#9" y="8.684"/></svg><svg x="5310"><use xlink:href="#a"/><use xlink:href="#b" x="6.996" y="8.659"/><use xlink:href="#6"/><use xlink:href="#7" y="2.171"/><use xlink:href="#10" y="4.342"/><use xlink:href="#11" y="6.513"/><text y="10.354" class="c">You:</text><text x="5.01" y="10.354" class="c">ch</text></svg><svg x="5428"><use xlink:href="#a"/><use xlink:href="#b" x="7.996" y="8.659"/><use xlink:href="#6"/><use xlink:href="#7" y="2.171"/><use xlink:href="#10" y="4.342"/><use xlink:href="#11" y="6.513"/><use xlink:href="#12" y="8.684"/></svg><svg x="5546"><use xlink:href="#a"/><use xlink:href="#b" x="8.996" y="8.659"/><use xlink:href="#6"/><use xlink:href="#7" y="2.171"/><use xlink:href="#10" y="4.342"/><use xlink:href="#11" y="6.513"/><use xlink:href="#12" y="8.684"/></svg><svg x="5664"><use xlink:href="#a"/><use xlink:href="#b" x="9.996" y="8.659"/><use xlink:href="#6"/><use xlink:href="#7" y="2.171"/><use xlink:href="#10" y="4.342"/><use xlink:href="#11" y="6.513"/><text y="10.354" class="c">You:</text><text x="5.01" y="10.354" class="c">chi</text><text x="9.018" y="10.354" class="c">s</text></svg><svg x="5782"><use xlink:href="#a"/><use xlink:href="#b" x="10.996" y="8.659"/><use xlink:href="#6"/><use xlink:href="#7" y="2.171"/><use xlink:href="#10" y="4.342"/><use xlink:href="#11" y="6.513"/><text y="10.354" class="c">You:</text><text x="5.01" y="10.354" class="c">chi</text><text x="9.018" y="10.354" class="c">se</text></svg><svg x="5900"><use xlink:href="#a"/><use xlink:href="#b" x="11.996" y="8.659"/><use xlink:href="#6"/><use xlink:href="#7" y="2.171"/><use xlink:href="#10" y="4.342"/><use xlink:href="#11" y="6.513"/><text y="10.354" class="c">You:</text><text x="5.01" y="10.354" class="c">chi</text><text x="9.018" y="10.354" class="c">sei</text></svg><svg x="6018"><use xlink:href="#a"/><use xlink:href="#b" x="12.996" y="8.659"/><use xlink:href="#6"/><use xlink:href="#7" y="2.171"/><use xlink:href="#10" y="4.342"/><use xlink:href="#11" y="6.513"/><use xlink:href="#13" y="8.684"/></svg><svg x="6136"><use xlink:href="#a"/><use xlink:href="#b" x="-.004" y="10.83"/><use xlink:href="#6"/><use xlink:href="#7" y="2.171"/><use xlink:href="#10" y="4.342"/><use xlink:href="#11" y="6.513"/><use xlink:href="#13" y="8.684"/></svg><svg x="6254"><use xlink:href="#a"/><use xlink:href="#b" x="4.996" y="15.172"/><use xlink:href="#6"/><use xlink:href="#7" y="2.171"/><use xlink:href="#10" y="4.342"/><use xlink:href="#11" y="6.513"/><use xlink:href="#13" y="8.684"/><use xlink:href="#14" y="10.855"/><use xlink:href="#15" y="13.026"/><use xlink:href="#8" y="15.197"/></svg><svg x="6372"><use xlink:href="#a"/><use xlink:href="#b" x="6.996" y="15.172"/><use xlink:href="#6"/><use xlink:href="#7" y="2.171"/><use xlink:href="#10" y="4.342"/><use xlink:href="#11" y="6.513"/><use xlink:href="#13" y="8.684"/><use xlink:href="#14" y="10.855"/><use xlink:href="#15" y="13.026"/><text y="16.867" class="c">You:</text><text x="5.01" y="16.867" class="c">^C</text></svg><svg x="6490"><use xlink:href="#a"/><use xlink:href="#b" x="-.004" y="19.514"/><use xlink:href="#6"/><use xlink:href="#7" y="2.171"/><use xlink:href="#10" y="4.342"/><use xlink:href="#11" y="6.513"/><use xlink:href="#13" y="8.684"/><use xlink:href="#14" y="10.855"/><use xlink:href="#15" y="13.026"/><use xlink:href="#16" y="15.197"/><use xlink:href="#17" y="17.368"/></svg><svg x="6608"><use xlink:href="#a"/><use xlink:href="#b" x="-.004" y="23.856"/><use xlink:href="#6"/><use xlink:href="#7" y="2.171"/><use xlink:href="#10" y="4.342"/><use xlink:href="#11" y="6.513"/><use xlink:href="#13" y="8.684"/><use xlink:href="#14" y="10.855"/><use xlink:href="#15" y="13.026"/><use xlink:href="#16" y="15.197"/><use xlink:href="#17" y="17.368"/><use xlink:href="#18" y="19.539"/><use xlink:href="#19" y="21.71"/></svg><svg x="6726"><use xlink:href="#a"/><use xlink:href="#b" x="-.004" y="26.027"/><use xlink:href="#6"/><use xlink:href="#7" y="2.171"/><use xlink:href="#10" y="4.342"/><use xlink:href="#11" y="6.513"/><use xlink:href="#13" y="8.684"/><use xlink:href="#14" y="10.855"/><use xlink:href="#15" y="13.026"/><use xlink:href="#16" y="15.197"/><use xlink:href="#17" y="17.368"/><use xlink:href="#18" y="19.539"/><use xlink:href="#19" y="21.71"/></svg><svg x="6844"><use xlink:href="#a"/><use xlink:href="#b" x="-.004" y="26.027"/><use xlink:href="#6"/><use xlink:href="#7" y="2.171"/><use xlink:href="#10" y="4.342"/><use xlink:href="#11" y="6.513"/><use xlink:href="#13" y="8.684"/><use xlink:href="#14" y="10.855"/><use xlink:href="#15" y="13.026"/><use xlink:href="#16" y="15.197"/><use xlink:href="#17" y="17.368"/><use xlink:href="#18" y="19.539"/><use xlink:href="#19" y="21.71"/></svg><svg x="6962"><use xlink:href="#a"/><use xlink:href="#b" x="-.004" y="26.027"/><use xlink:href="#6"/><use xlink:href="#7" y="2.171"/><use xlink:href="#10" y="4.342"/><use xlink:href="#11" y="6.513"/><use xlink:href="#13" y="8.684"/><use xlink:href="#14" y="10.855"/><use xlink:href="#15" y="13.026"/><use xlink:href="#16" y="15.197"/><use xlink:href="#17" y="17.368"/><use xlink:href="#18" y="19.539"/><use xlink:href="#19" y="21.71"/></svg><svg x="7080"><use xlink:href="#a"/><use xlink:href="#b" x="-.004" y="26.027"/><use xlink:href="#6"/><use xlink:href="#7" y="2.171"/><use xlink:href="#10" y="4.342"/><use xlink:href="#11" y="6.513"/><use xlink:href="#13" y="8.684"/><use xlink:href="#14" y="10.855"/><use xlink:href="#15" y="13.026"/><use xlink:href="#16" y="15.197"/><use xlink:href="#17" y="17.368"/><use xlink:href="#18" y="19.539"/><use xlink:href="#19" y="21.71"/></svg><svg x="7198"><use xlink:href="#a"/><use xlink:href="#b" x="-.004" y="26.027"/><use xlink:href="#6"/><use xlink:href="#7" y="2.171"/><use xlink:href="#10" y="4.342"/><use xlink:href="#11" y="6.513"/><use xlink:href="#13" y="8.684"/><use xlink:href="#14" y="10.855"/><use xlink:href="#15" y="13.026"/><use xlink:href="#16" y="15.197"/><use xlink:href="#17" y="17.368"/><use xlink:href="#18" y="19.539"/><use xlink:href="#19" y="21.71"/></svg><svg x="7316"><use xlink:href="#a"/><use xlink:href="#b" x="-.004" y="26.027"/><use xlink:href="#6"/><use xlink:href="#7" y="2.171"/><use xlink:href="#10" y="4.342"/><use xlink:href="#11" y="6.513"/><use xlink:href="#13" y="8.684"/><use xlink:href="#14" y="10.855"/><use xlink:href="#15" y="13.026"/><use xlink:href="#16" y="15.197"/><use xlink:href="#17" y="17.368"/><use xlink:href="#18" y="19.539"/><use xlink:href="#19" y="21.71"/></svg><svg x="7434"><use xlink:href="#a"/><use xlink:href="#b" x="-.004" y="26.027"/><use xlink:href="#6"/><use xlink:href="#7" y="2.171"/><use xlink:href="#10" y="4.342"/><use xlink:href="#11" y="6.513"/><use xlink:href="#13" y="8.684"/><use xlink:href="#14" y="10.855"/><use xlink:href="#15" y="13.026"/><use xlink:href="#16" y="15.197"/><use xlink:href="#17" y="17.368"/><use xlink:href="#18" y="19.539"/><use xlink:href="#19" y="21.71"/></svg><svg x="7552"><use xlink:href="#a"/><use xlink:href="#b" x="-.004" y="26.027"/><use xlink:href="#6"/><use xlink:href="#7" y="2.171"/><use xlink:href="#10" y="4.342"/><use xlink:href="#11" y="6.513"/><use xlink:href="#13" y="8.684"/><use xlink:href="#14" y="10.855"/><use xlink:href="#15" y="13.026"/><use xlink:href="#16" y="15.197"/><use xlink:href="#17" y="17.368"/><use xlink:href="#18" y="19.539"/><use xlink:href="#19" y="21.71"/></svg><svg x="7670"><use xlink:href="#a"/><use xlink:href="#b" x="-.004" y="26.027"/><use xlink:href="#6"/><use xlink:href="#7" y="2.171"/><use xlink:href="#10" y="4.342"/><use xlink:href="#11" y="6.513"/><use xlink:href="#13" y="8.684"/><use xlink:href="#14" y="10.855"/><use xlink:href="#15" y="13.026"/><use xlink:href="#16" y="15.197"/><use xlink:href="#17" y="17.368"/><use xlink:href="#18" y="19.539"/><use xlink:href="#19" y="21.71"/></svg><svg x="7788"><use xlink:href="#a"/><use xlink:href="#b" x="-.004" y="26.027"/><use xlink:href="#6"/><use xlink:href="#7" y="2.171"/><use xlink:href="#10" y="4.342"/><use xlink:href="#11" y="6.513"/><use xlink:href="#13" y="8.684"/><use xlink:href="#14" y="10.855"/><use xlink:href="#15" y="13.026"/><use xlink:href="#16" y="15.197"/><use xlink:href="#17" y="17.368"/><use xlink:href="#18" y="19.539"/><use xlink:href="#19" y="21.71"/></svg><svg x="7906"><use xlink:href="#a"/><use xlink:href="#b" x="-.004" y="26.027"/><use xlink:href="#6"/><use xlink:href="#7" y="2.171"/><use xlink:href="#10" y="4.342"/><use xlink:href="#11" y="6.513"/><use xlink:href="#13" y="8.684"/><use xlink:href="#14" y="10.855"/><use xlink:href="#15" y="13.026"/><use xlink:href="#16" y="15.197"/><use xlink:href="#17" y="17.368"/><use xlink:href="#18" y="19.539"/><use xlink:href="#19" y="21.71"/></svg><svg x="8024"><use xlink:href="#a"/><use xlink:href="#b" x="-.004" y="26.027"/><use xlink:href="#6"/><use xlink:href="#7" y="2.171"/><use xlink:href="#10" y="4.342"/><use xlink:href="#11" y="6.513"/><use xlink:href="#13" y="8.684"/><use xlink:href="#14" y="10.855"/><use xlink:href="#15" y="13.026"/><use xlink:href="#16" y="15.197"/><use xlink:href="#17" y="17.368"/><use xlink:href="#18" y="19.539"/><use xlink:href="#19" y="21.71"/></svg><svg x="8142"><use xlink:href="#a"/><use xlink:href="#b" x="80.996" y="26.027"/><use xlink:href="#6"/><use xlink:href="#7" y="2.171"/><use xlink:href="#10" y="4.342"/><use xlink:href="#11" y="6.513"/><use xlink:href="#13" y="8.684"/><use xlink:href="#14" y="10.855"/><use xlink:href="#15" y="13.026"/><use xlink:href="#16" y="15.197"/><use xlink:href="#17" y="17.368"/><use xlink:href="#18" y="19.539"/><use xlink:href="#19" y="21.71"/><use xlink:href="#20" y="26.052"/></svg><svg x="8260"><use xlink:href="#a"/><use xlink:href="#b" x="80.996" y="26.027"/><use xlink:href="#6"/><use xlink:href="#7" y="2.171"/><use xlink:href="#10" y="4.342"/><use xlink:href="#11" y="6.513"/><use xlink:href="#13" y="8.684"/><use xlink:href="#14" y="10.855"/><use xlink:href="#15" y="13.026"/><use xlink:href="#16" y="15.197"/><use xlink:href="#17" y="17.368"/><use xlink:href="#18" y="19.539"/><use xlink:href="#19" y="21.71"/><use xlink:href="#20" y="26.052"/></svg><svg x="8378"><use xlink:href="#a"/><use xlink:href="#b" x="80.996" y="26.027"/><use xlink:href="#6"/><use xlink:href="#7" y="2.171"/><use xlink:href="#10" y="4.342"/><use xlink:href="#11" y="6.513"/><use xlink:href="#13" y="8.684"/><use xlink:href="#14" y="10.855"/><use xlink:href="#15" y="13.026"/><use xlink:href="#16" y="15.197"/><use xlink:href="#17" y="17.368"/><use xlink:href="#18" y="19.539"/><use xlink:href="#19" y="21.71"/><use xlink:href="#20" y="26.052"/></svg><svg x="8496"><use xlink:href="#a"/><use xlink:href="#b" x="-.004" y="26.027"/><use xlink:href="#7"/><use xlink:href="#10" y="2.171"/><use xlink:href="#11" y="4.342"/><use xlink:href="#13" y="6.513"/><use xlink:href="#14" y="8.684"/><use xlink:href="#15" y="10.855"/><use xlink:href="#16" y="13.026"/><use xlink:href="#17" y="15.197"/><use xlink:href="#18" y="17.368"/><use xlink:href="#19" y="19.539"/><use xlink:href="#20" y="23.881"/></svg></svg></g></g></svg></svg>