<svg xmlns="http://www.w3.org/2000/svg" xmlns:xlink="http://www.w3.org/1999/xlink" width="1190" height="1541.41"><rect width="1190" height="1541.41" rx="0" ry="0" class="a"/><svg height="1541.41" viewBox="0 0 119 154.141" width="1190" xmlns="http://www.w3.org/2000/svg" xmlns:xlink="http://www.w3.org/1999/xlink"><style>@keyframes q{0%{transform:translateX(0)}1.88%{transform:translateX(-119px)}1.96%{transform:translateX(-357px)}1.99%{transform:translateX(-476px)}2.17%{transform:translateX(-595px)}2.18%{transform:translateX(-714px)}2.2%{transform:translateX(-833px)}2.21%{transform:translateX(-1071px)}2.23%{transform:translateX(-1190px)}2.7%{transform:translateX(-1547px)}7.71%{transform:translateX(-1666px)}7.97%{transform:translateX(-1785px)}9.32%{transform:translateX(-1904px)}9.73%{transform:translateX(-2023px)}10.27%{transform:translateX(-2142px)}11.42%{transform:translateX(-2261px)}11.71%{transform:translateX(-2380px)}12.11%{transform:translateX(-2499px)}14.61%{transform:translateX(-2618px)}14.62%{transform:translateX(-2737px)}14.63%{transform:translateX(-2975px)}14.64%{transform:translateX(-3094px)}17.36%{transform:translateX(-3213px)}17.37%{transform:translateX(-3570px)}22.61%{transform:translateX(-3689px)}23.49%{transform:translateX(-3808px)}23.89%{transform:translateX(-3927px)}24.32%{transform:translateX(-4046px)}25.45%{transform:translateX(-4165px)}26.49%{transform:translateX(-4284px)}27.59%{transform:translateX(-4403px)}28.26%{transform:translateX(-4522px)}29.92%{transform:translateX(-4641px)}30.35%{transform:translateX(-4760px)}30.69%{transform:translateX(-4879px)}31.8%{transform:translateX(-4998px)}33.45%{transform:translateX(-5117px)}42.22%{transform:translateX(-5474px)}57.78%{transform:translateX(-5593px)}58.46%{transform:translateX(-5712px)}59.02%{transform:translateX(-5831px)}59.93%{transform:translateX(-5950px)}61.68%{transform:translateX(-6069px)}63.03%{transform:translateX(-6307px)}64.73%{transform:translateX(-6426px)}65.57%{transform:translateX(-6545px)}67.28%{transform:translateX(-6664px)}67.91%{transform:translateX(-6783px)}68.46%{transform:translateX(-6902px)}70.22%{transform:translateX(-7021px)}70.87%{transform:translateX(-7140px)}71.25%{transform:translateX(-7259px)}73.76%{transform:translateX(-7378px)}76.25%{transform:translateX(-7497px)}80.84%{transform:translateX(-7735px)}90.3%{transform:translateX(-7973px)}90.4%{transform:translateX(-8092px)}90.79%{transform:translateX(-8330px)}90.81%{transform:translateX(-8449px)}90.83%{transform:translateX(-8687px)}90.84%{transform:translateX(-8806px)}90.85%{transform:translateX(-8925px)}91.31%{transform:translateX(-9282px)}to{transform:translateX(-9401px)}}.a{fill:#282d35}.c,.d{fill:#b9c0cb;white-space:pre}.d{fill:#b9bfca}.e{fill:#444}.f{white-space:pre}.g{fill:#71bef2}.h{fill:#444;white-space:pre}.i{fill:#a8cc8c}.j,.k,.l{fill:#71bef2;white-space:pre}.k,.l{fill:#a8cc8c}.l{fill:#b9c0cb;text-decoration:underline}</style><g font-family="Monaco,Consolas,Menlo,'Bitstream Vera Sans Mono','Powerline Symbols',monospace" font-size="1.67"><defs><symbol id="1">0<text y="1.67" class="c"></text>0<text x="1.002" y="1.67" class="d"></text><path class="e" d="M3.006 0h2v2.171h-2z"/><text x="3.006" y="1.67" class="f"></text><path class="e" d="M5.01 0h15v2.171h-15z"/><text x="5.01" y="1.67" class="d">nicola@wiumlie</text><path class="g" d="M20.04 0h2v2.171h-2z"/><text x="20.04" y="1.67" class="h"></text><path class="g" d="M22.044 0h43v2.171h-43z"/><text x="22.044" y="1.67" class="d"> ~/workspace/memori/examples/node-minimal</text><path class="i" d="M65.13 0h2v2.171h-2z"/><text x="65.13" y="1.67" class="j"></text><path class="i" d="M67.134 0h10v2.171h-10z"/><text x="67.134" y="1.67" class="f">  main</text><text x="77.154" y="1.67" class="k"></text><text x="104.208" y="1.67" class="f"></text>0<text x="105.21" y="1.67" class="k"></text>0<text x="108.216" y="1.67" class="j"></text><path class="g" d="M109.218 0h10v2.171h-10z"/><text x="109.218" y="1.67" class="d">09:58:35</text></symbol><symbol id="2">0<text y="1.67" class="c"></text>0<text x="1.002" y="1.67" class="d"></text><path class="e" d="M3.006 0h2v2.171h-2z"/><text x="3.006" y="1.67" class="f"></text><path class="e" d="M5.01 0h15v2.171h-15z"/><text x="5.01" y="1.67" class="d">nicola@wiumlie</text><path class="g" d="M20.04 0h2v2.171h-2z"/><text x="20.04" y="1.67" class="h"></text><path class="g" d="M22.044 0h43v2.171h-43z"/><text x="22.044" y="1.67" class="d"> ~/workspace/memori/examples/node-minimal</text><path class="i" d="M65.13 0h2v2.171h-2z"/><text x="65.13" y="1.67" class="j"></text><path class="i" d="M67.134 0h10v2.171h-10z"/><text x="67.134" y="1.67" class="f">  main</text><text x="77.154" y="1.67" class="k"></text><text x="79.158" y="1.67" class="k">node</text><text x="104.208" y="1.67" class="f"></text>0<text x="105.21" y="1.67" class="k"></text>0<text x="108.216" y="1.67" class="j"></text><path class="g" d="M109.218 0h10v2.171h-10z"/><text x="109.218" y="1.67" class="d">09:58:35</text></symbol><symbol id="3">0<text y="1.67" class="c"></text>0<text x="1.002" y="1.67" class="d"></text><path class="e" d="M3.006 0h2v2.171h-2z"/><text x="3.006" y="1.67" class="f"></text><path class="e" d="M5.01 0h15v2.171h-15z"/><text x="5.01" y="1.67" class="d">nicola@wiumlie</text><path class="g" d="M20.04 0h2v2.171h-2z"/><text x="20.04" y="1.67" class="h"></text><path class="g" d="M22.044 0h43v2.171h-43z"/><text x="22.044" y="1.67" class="d"> ~/workspace/memori/examples/node-minimal</text><path class="i" d="M65.13 0h2v2.171h-2z"/><text x="65.13" y="1.67" class="j"></text><path class="i" d="M67.134 0h10v2.171h-10z"/><text x="67.134" y="1.67" class="f">  main</text><text x="77.154" y="1.67" class="k"></text><text x="79.158" y="1.67" class="k">node</text><text x="84.168" y="1.67" class="l">index.js</text><text x="104.208" y="1.67" class="f"></text>0<text x="105.21" y="1.67" class="k"></text>0<text x="108.216" y="1.67" class="j"></text><path class="g" d="M109.218 0h10v2.171h-10z"/><text x="109.218" y="1.67" class="d">09:58:35</text></symbol><symbol id="4"><text y="1.67" class="c">Nunzio:</text><text x="8.016" y="1.67" class="c">Ciao,</text><text x="14.028" y="1.67" class="c">io</text><text x="17.034" y="1.67" class="c">sono</text><text x="22.044" y="1.67" class="c">Nunzio,</text><text x="30.06" y="1.67" class="c">chiedimi</text><text x="39.078" y="1.67" class="c">quel</text><text x="44.088" y="1.67" class="c">che</text><text x="48.096" y="1.67" class="c">ti</text><text x="51.102" y="1.67" class="c">pare</text></symbol><symbol id="5"><text y="1.67" class="c">You:</text></symbol><symbol id="6"><text y="1.67" class="c">You:</text><text x="5.01" y="1.67" class="c">C</text></symbol><symbol id="7"><text y="1.67" class="c">You:</text><text x="5.01" y="1.67" class="c">Ciao</text></symbol><symbol id="8"><text y="1.67" class="c">You:</text><text x="5.01" y="1.67" class="c">Ciao</text><text x="10.02" y="1.67" class="c">Nunzio!</text></symbol><symbol id="9"><text y="1.67" class="c">Nunzio:</text><text x="8.016" y="1.67" class="c">Ciao</text><text x="13.026" y="1.67" class="c">a</text><text x="15.03" y="1.67" class="c">te.</text></symbol><symbol id="10"><text y="1.67" class="c">You:</text><text x="5.01" y="1.67" class="c">Cos&apos;</text></symbol><symbol id="11"><text y="1.67" class="c">You:</text><text x="5.01" y="1.67" class="c">Cos&apos;è</text></symbol><symbol id="12"><text y="1.67" class="c">You:</text><text x="5.01" y="1.67" class="c">Cos&apos;è</text><text x="11.022" y="1.67" class="c">Memori?</text></symbol><symbol id="13"><text y="1.67" class="c">Nunzio:</text><text x="8.016" y="1.67" class="c">Memori</text><text x="15.03" y="1.67" class="c">è</text><text x="17.034" y="1.67" class="c">il</text><text x="20.04" y="1.67" class="c">progetto</text><text x="29.058" y="1.67" class="c">che</text><text x="33.066" y="1.67" class="c">seguo</text><text x="39.078" y="1.67" class="c">da</text><text x="42.084" y="1.67" class="c">ormai</text><text x="48.096" y="1.67" class="c">6</text><text x="50.1" y="1.67" class="c">anni</text><text x="55.11" y="1.67" class="c">(lascio</text><text x="63.126" y="1.67" class="c">questo</text><text x="70.14" y="1.67" class="c">messaggio</text><text x="80.16" y="1.67" class="c">dal</text><text x="84.168" y="1.67" class="c">2020).</text><text x="91.182" y="1.67" class="c">E&apos;</text><text x="94.188" y="1.67" class="c">un&apos;azienda</text><text x="105.21" y="1.67" class="c">ora</text><text x="109.218" y="1.67" class="c">che</text><text x="113.226" y="1.67" class="c">permet</text></symbol><symbol id="14"><text y="1.67" class="c">te</text><text x="3.006" y="1.67" class="c">di</text><text x="6.012" y="1.67" class="c">creare</text><text x="13.026" y="1.67" class="c">conversazioni</text><text x="27.054" y="1.67" class="c">e</text><text x="29.058" y="1.67" class="c">gestire</text><text x="37.074" y="1.67" class="c">riconoscimento</text><text x="52.104" y="1.67" class="c">linguistico.</text><text x="65.13" y="1.67" class="c">Abbiamo</text><text x="73.146" y="1.67" class="c">diversi</text><text x="81.162" y="1.67" class="c">progetti.</text><text x="91.182" y="1.67" class="c">Uno</text><text x="95.19" y="1.67" class="c">è</text><text x="97.194" y="1.67" class="c">Memori</text><text x="104.208" y="1.67" class="c">TWIN,</text><text x="110.22" y="1.67" class="c">l&apos;applica</text></symbol><symbol id="15"><text y="1.67" class="c">zione</text><text x="6.012" y="1.67" class="c">su</text><text x="9.018" y="1.67" class="c">cui</text><text x="13.026" y="1.67" class="c">mi</text><text x="16.032" y="1.67" class="c">stai</text><text x="21.042" y="1.67" class="c">scrivendo.</text></symbol><symbol id="16"><text y="1.67" class="c">You:</text><path fill="#b9c0cb" d="M5.01 0h1v2.171h-1z"/><text x="5.01" y="1.67" style="white-space:pre" fill="#282d35" font-weight="700">%</text></symbol><symbol id="17">0<text y="1.67" class="c"></text>0<text x="1.002" y="1.67" class="d"></text><path class="e" d="M3.006 0h2v2.171h-2z"/><text x="3.006" y="1.67" class="f"></text><path class="e" d="M5.01 0h15v2.171h-15z"/><text x="5.01" y="1.67" class="d">nicola@wiumlie</text><path class="g" d="M20.04 0h2v2.171h-2z"/><text x="20.04" y="1.67" class="h"></text><path class="g" d="M22.044 0h43v2.171h-43z"/><text x="22.044" y="1.67" class="d"> ~/workspace/memori/examples/node-minimal</text><path class="i" d="M65.13 0h2v2.171h-2z"/><text x="65.13" y="1.67" class="j"></text><path class="i" d="M67.134 0h10v2.171h-10z"/><text x="67.134" y="1.67" class="f">  main</text><text x="77.154" y="1.67" class="k"></text><text x="104.208" y="1.67" class="f"></text>0<text x="105.21" y="1.67" class="k"></text>0<text x="108.216" y="1.67" class="j"></text><path class="g" d="M109.218 0h10v2.171h-10z"/><text x="109.218" y="1.67" class="d">09:58:54</text></symbol><symbol id="a"><path fill="transparent" d="M0 0h119v71H0z"/></symbol><symbol id="b"><path fill="#6f7683" d="M0 0h1.102v2.171H0z"/></symbol></defs><path class="a" d="M0 0h119v154.141H0z"/><g style="animation-duration:21.2269s;animation-iteration-count:infinite;animation-name:q;animation-timing-function:steps(1,end)"><svg width="9520"><svg><use xlink:href="#a"/><use xlink:href="#b" x="-.004"/></svg><svg x="119"><use xlink:href="#a"/><use xlink:href="#b" x="-.004"/></svg><svg x="238"><use xlink:href="#a"/><use xlink:href="#b" x="-.004"/></svg><svg x="357"><use xlink:href="#a"/><use xlink:href="#b" x="-.004"/></svg><svg x="476"><use xlink:href="#a"/><use xlink:href="#b" x="-.004"/></svg><svg x="595"><use xlink:href="#a"/><use xlink:href="#b" x="-.004"/></svg><svg x="714"><use xlink:href="#a"/><use xlink:href="#b" x="-.004"/></svg><svg x="833"><use xlink:href="#a"/><use xlink:href="#b" x="-.004"/></svg><svg x="952"><use xlink:href="#a"/><use xlink:href="#b" x="-.004"/></svg><svg x="1071"><use xlink:href="#a"/><use xlink:href="#b" x="-.004"/></svg><svg x="1190"><use xlink:href="#a"/><use xlink:href="#b" x="-.004"/></svg><svg x="1309"><use xlink:href="#a"/><use xlink:href="#b" x="78.996"/><use xlink:href="#1"/></svg><svg x="1428"><use xlink:href="#a"/><use xlink:href="#b" x="78.996"/><use xlink:href="#1"/></svg><svg x="1547"><use xlink:href="#a"/><use xlink:href="#b" x="78.996"/><use xlink:href="#1"/></svg><svg x="1666"><use xlink:href="#a"/><use xlink:href="#b" x="79.996"/>0<text y="1.67" class="c"></text>0<text x="1.002" y="1.67" class="d"></text><path class="e" d="M3.006 0h2v2.171h-2z"/><text x="3.006" y="1.67" class="f"></text><path class="e" d="M5.01 0h15v2.171h-15z"/><text x="5.01" y="1.67" class="d">nicola@wiumlie</text><path class="g" d="M20.04 0h2v2.171h-2z"/><text x="20.04" y="1.67" class="h"></text><path class="g" d="M22.044 0h43v2.171h-43z"/><text x="22.044" y="1.67" class="d"> ~/workspace/memori/examples/node-minimal</text><path class="i" d="M65.13 0h2v2.171h-2z"/><text x="65.13" y="1.67" class="j"></text><path class="i" d="M67.134 0h10v2.171h-10z"/><text x="67.134" y="1.67" class="f">  main</text><text x="77.154" y="1.67" class="k"></text><text x="79.158" y="1.67" class="l">n</text><text x="104.208" y="1.67" class="f"></text>0<text x="105.21" y="1.67" class="k"></text>0<text x="108.216" y="1.67" class="j"></text><path class="g" d="M109.218 0h10v2.171h-10z"/><text x="109.218" y="1.67" class="d">09:58:35</text></svg><svg x="1785"><use xlink:href="#a"/><use xlink:href="#b" x="80.996"/>0<text y="1.67" class="c"></text>0<text x="1.002" y="1.67" class="d"></text><path class="e" d="M3.006 0h2v2.171h-2z"/><text x="3.006" y="1.67" class="f"></text><path class="e" d="M5.01 0h15v2.171h-15z"/><text x="5.01" y="1.67" class="d">nicola@wiumlie</text><path class="g" d="M20.04 0h2v2.171h-2z"/><text x="20.04" y="1.67" class="h"></text><path class="g" d="M22.044 0h43v2.171h-43z"/><text x="22.044" y="1.67" class="d"> ~/workspace/memori/examples/node-minimal</text><path class="i" d="M65.13 0h2v2.171h-2z"/><text x="65.13" y="1.67" class="j"></text><path class="i" d="M67.134 0h10v2.171h-10z"/><text x="67.134" y="1.67" class="f">  main</text><text x="77.154" y="1.67" class="k"></text><text x="79.158" y="1.67" class="l">no</text><text x="104.208" y="1.67" class="f"></text>0<text x="105.21" y="1.67" class="k"></text>0<text x="108.216" y="1.67" class="j"></text><path class="g" d="M109.218 0h10v2.171h-10z"/><text x="109.218" y="1.67" class="d">09:58:35</text></svg><svg x="1904"><use xlink:href="#a"/><use xlink:href="#b" x="81.996"/>0<text y="1.67" class="c"></text>0<text x="1.002" y="1.67" class="d"></text><path class="e" d="M3.006 0h2v2.171h-2z"/><text x="3.006" y="1.67" class="f"></text><path class="e" d="M5.01 0h15v2.171h-15z"/><text x="5.01" y="1.67" class="d">nicola@wiumlie</text><path class="g" d="M20.04 0h2v2.171h-2z"/><text x="20.04" y="1.67" class="h"></text><path class="g" d="M22.044 0h43v2.171h-43z"/><text x="22.044" y="1.67" class="d"> ~/workspace/memori/examples/node-minimal</text><path class="i" d="M65.13 0h2v2.171h-2z"/><text x="65.13" y="1.67" class="j"></text><path class="i" d="M67.134 0h10v2.171h-10z"/><text x="67.134" y="1.67" class="f">  main</text><text x="77.154" y="1.67" class="k"></text><text x="79.158" y="1.67" class="l">nod</text><text x="104.208" y="1.67" class="f"></text>0<text x="105.21" y="1.67" class="k"></text>0<text x="108.216" y="1.67" class="j"></text><path class="g" d="M109.218 0h10v2.171h-10z"/><text x="109.218" y="1.67" class="d">09:58:35</text></svg><svg x="2023"><use xlink:href="#a"/><use xlink:href="#b" x="82.996"/><use xlink:href="#2"/></svg><svg x="2142"><use xlink:href="#a"/><use xlink:href="#b" x="83.996"/><use xlink:href="#2"/></svg><svg x="2261"><use xlink:href="#a"/><use xlink:href="#b" x="84.996"/>0<text y="1.67" class="c"></text>0<text x="1.002" y="1.67" class="d"></text><path class="e" d="M3.006 0h2v2.171h-2z"/><text x="3.006" y="1.67" class="f"></text><path class="e" d="M5.01 0h15v2.171h-15z"/><text x="5.01" y="1.67" class="d">nicola@wiumlie</text><path class="g" d="M20.04 0h2v2.171h-2z"/><text x="20.04" y="1.67" class="h"></text><path class="g" d="M22.044 0h43v2.171h-43z"/><text x="22.044" y="1.67" class="d"> ~/workspace/memori/examples/node-minimal</text><path class="i" d="M65.13 0h2v2.171h-2z"/><text x="65.13" y="1.67" class="j"></text><path class="i" d="M67.134 0h10v2.171h-10z"/><text x="67.134" y="1.67" class="f">  main</text><text x="77.154" y="1.67" class="k"></text><text x="79.158" y="1.67" class="k">node</text><text x="84.168" y="1.67" class="l">i</text><text x="104.208" y="1.67" class="f"></text>0<text x="105.21" y="1.67" class="k"></text>0<text x="108.216" y="1.67" class="j"></text><path class="g" d="M109.218 0h10v2.171h-10z"/><text x="109.218" y="1.67" class="d">09:58:35</text></svg><svg x="2380"><use xlink:href="#a"/><use xlink:href="#b" x="85.996"/>0<text y="1.67" class="c"></text>0<text x="1.002" y="1.67" class="d"></text><path class="e" d="M3.006 0h2v2.171h-2z"/><text x="3.006" y="1.67" class="f"></text><path class="e" d="M5.01 0h15v2.171h-15z"/><text x="5.01" y="1.67" class="d">nicola@wiumlie</text><path class="g" d="M20.04 0h2v2.171h-2z"/><text x="20.04" y="1.67" class="h"></text><path class="g" d="M22.044 0h43v2.171h-43z"/><text x="22.044" y="1.67" class="d"> ~/workspace/memori/examples/node-minimal</text><path class="i" d="M65.13 0h2v2.171h-2z"/><text x="65.13" y="1.67" class="j"></text><path class="i" d="M67.134 0h10v2.171h-10z"/><text x="67.134" y="1.67" class="f">  main</text><text x="77.154" y="1.67" class="k"></text><text x="79.158" y="1.67" class="k">node</text><text x="84.168" y="1.67" class="l">in</text><text x="104.208" y="1.67" class="f"></text>0<text x="105.21" y="1.67" class="k"></text>0<text x="108.216" y="1.67" class="j"></text><path class="g" d="M109.218 0h10v2.171h-10z"/><text x="109.218" y="1.67" class="d">09:58:35</text></svg><svg x="2499"><use xlink:href="#a"/><use xlink:href="#b" x="92.996"/><use xlink:href="#3"/></svg><svg x="2618"><use xlink:href="#a"/><use xlink:href="#b" x="91.996"/><use xlink:href="#3"/></svg><svg x="2737"><use xlink:href="#a"/><use xlink:href="#b" x="91.996"/><use xlink:href="#3"/></svg><svg x="2856"><use xlink:href="#a"/><use xlink:href="#b" x="-.004" y="2.146"/><use xlink:href="#3"/></svg><svg x="2975"><use xlink:href="#a"/><use xlink:href="#b" x="-.004" y="2.146"/><use xlink:href="#3"/></svg><svg x="3094"><use xlink:href="#a"/><use xlink:href="#b" x="-.004" y="2.146"/><use xlink:href="#3"/></svg><svg x="3213"><use xlink:href="#a"/><use xlink:href="#b" x="-.004" y="4.317"/><use xlink:href="#3"/><use xlink:href="#4" y="2.171"/></svg><svg x="3332"><use xlink:href="#a"/><use xlink:href="#b" x="-.004" y="4.317"/><use xlink:href="#3"/><use xlink:href="#4" y="2.171"/></svg><svg x="3451"><use xlink:href="#a"/><use xlink:href="#b" x="-.004" y="4.317"/><use xlink:href="#3"/><use xlink:href="#4" y="2.171"/></svg><svg x="3570"><use xlink:href="#a"/><use xlink:href="#b" x="4.996" y="4.317"/><use xlink:href="#3"/><use xlink:href="#4" y="2.171"/><use xlink:href="#5" y="4.342"/></svg><svg x="3689"><use xlink:href="#a"/><use xlink:href="#b" x="5.996" y="4.317"/><use xlink:href="#3"/><use xlink:href="#4" y="2.171"/><use xlink:href="#6" y="4.342"/></svg><svg x="3808"><use xlink:href="#a"/><use xlink:href="#b" x="6.996" y="4.317"/><use xlink:href="#3"/><use xlink:href="#4" y="2.171"/><text y="6.012" class="c">You:</text><text x="5.01" y="6.012" class="c">Ci</text></svg><svg x="3927"><use xlink:href="#a"/><use xlink:href="#b" x="7.996" y="4.317"/><use xlink:href="#3"/><use xlink:href="#4" y="2.171"/><text y="6.012" class="c">You:</text><text x="5.01" y="6.012" class="c">Cia</text></svg><svg x="4046"><use xlink:href="#a"/><use xlink:href="#b" x="8.996" y="4.317"/><use xlink:href="#3"/><use xlink:href="#4" y="2.171"/><use xlink:href="#7" y="4.342"/></svg><svg x="4165"><use xlink:href="#a"/><use xlink:href="#b" x="9.996" y="4.317"/><use xlink:href="#3"/><use xlink:href="#4" y="2.171"/><use xlink:href="#7" y="4.342"/></svg><svg x="4284"><use xlink:href="#a"/><use xlink:href="#b" x="10.996" y="4.317"/><use xlink:href="#3"/><use xlink:href="#4" y="2.171"/><text y="6.012" class="c">You:</text><text x="5.01" y="6.012" class="c">Ciao</text><text x="10.02" y="6.012" class="c">N</text></svg><svg x="4403"><use xlink:href="#a"/><use xlink:href="#b" x="11.996" y="4.317"/><use xlink:href="#3"/><use xlink:href="#4" y="2.171"/><text y="6.012" class="c">You:</text><text x="5.01" y="6.012" class="c">Ciao</text><text x="10.02" y="6.012" class="c">Nu</text></svg><svg x="4522"><use xlink:href="#a"/><use xlink:href="#b" x="12.996" y="4.317"/><use xlink:href="#3"/><use xlink:href="#4" y="2.171"/><text y="6.012" class="c">You:</text><text x="5.01" y="6.012" class="c">Ciao</text><text x="10.02" y="6.012" class="c">Nun</text></svg><svg x="4641"><use xlink:href="#a"/><use xlink:href="#b" x="13.996" y="4.317"/><use xlink:href="#3"/><use xlink:href="#4" y="2.171"/><text y="6.012" class="c">You:</text><text x="5.01" y="6.012" class="c">Ciao</text><text x="10.02" y="6.012" class="c">Nunz</text></svg><svg x="4760"><use xlink:href="#a"/><use xlink:href="#b" x="14.996" y="4.317"/><use xlink:href="#3"/><use xlink:href="#4" y="2.171"/><text y="6.012" class="c">You:</text><text x="5.01" y="6.012" class="c">Ciao</text><text x="10.02" y="6.012" class="c">Nunzi</text></svg><svg x="4879"><use xlink:href="#a"/><use xlink:href="#b" x="15.996" y="4.317"/><use xlink:href="#3"/><use xlink:href="#4" y="2.171"/><text y="6.012" class="c">You:</text><text x="5.01" y="6.012" class="c">Ciao</text><text x="10.02" y="6.012" class="c">Nunzio</text></svg><svg x="4998"><use xlink:href="#a"/><use xlink:href="#b" x="16.996" y="4.317"/><use xlink:href="#3"/><use xlink:href="#4" y="2.171"/><use xlink:href="#8" y="4.342"/></svg><svg x="5117"><use xlink:href="#a"/><use xlink:href="#b" x="-.004" y="6.488"/><use xlink:href="#3"/><use xlink:href="#4" y="2.171"/><use xlink:href="#8" y="4.342"/></svg><svg x="5236"><use xlink:href="#a"/><use xlink:href="#b" x="-.004" y="8.659"/><use xlink:href="#3"/><use xlink:href="#4" y="2.171"/><use xlink:href="#8" y="4.342"/><use xlink:href="#9" y="6.513"/></svg><svg x="5355"><use xlink:href="#a"/><use xlink:href="#b" x="-.004" y="8.659"/><use xlink:href="#3"/><use xlink:href="#4" y="2.171"/><use xlink:href="#8" y="4.342"/><use xlink:href="#9" y="6.513"/></svg><svg x="5474"><use xlink:href="#a"/><use xlink:href="#b" x="4.996" y="8.659"/><use xlink:href="#3"/><use xlink:href="#4" y="2.171"/><use xlink:href="#8" y="4.342"/><use xlink:href="#9" y="6.513"/><use xlink:href="#5" y="8.684"/></svg><svg x="5593"><use xlink:href="#a"/><use xlink:href="#b" x="5.996" y="8.659"/><use xlink:href="#3"/><use xlink:href="#4" y="2.171"/><use xlink:href="#8" y="4.342"/><use xlink:href="#9" y="6.513"/><use xlink:href="#6" y="8.684"/></svg><svg x="5712"><use xlink:href="#a"/><use xlink:href="#b" x="6.996" y="8.659"/><use xlink:href="#3"/><use xlink:href="#4" y="2.171"/><use xlink:href="#8" y="4.342"/><use xlink:href="#9" y="6.513"/><text y="10.354" class="c">You:</text><text x="5.01" y="10.354" class="c">Co</text></svg><svg x="5831"><use xlink:href="#a"/><use xlink:href="#b" x="7.996" y="8.659"/><use xlink:href="#3"/><use xlink:href="#4" y="2.171"/><use xlink:href="#8" y="4.342"/><use xlink:href="#9" y="6.513"/><text y="10.354" class="c">You:</text><text x="5.01" y="10.354" class="c">Cos</text></svg><svg x="5950"><use xlink:href="#a"/><use xlink:href="#b" x="8.996" y="8.659"/><use xlink:href="#3"/><use xlink:href="#4" y="2.171"/><use xlink:href="#8" y="4.342"/><use xlink:href="#9" y="6.513"/><use xlink:href="#10" y="8.684"/></svg><svg x="6069"><use xlink:href="#a"/><use xlink:href="#b" x="9.996" y="8.659"/><use xlink:href="#3"/><use xlink:href="#4" y="2.171"/><use xlink:href="#8" y="4.342"/><use xlink:href="#9" y="6.513"/><use xlink:href="#10" y="8.684"/></svg><svg x="6188"><use xlink:href="#a"/><use xlink:href="#b" x="-.004" y="8.659"/><use xlink:href="#3"/><use xlink:href="#4" y="2.171"/><use xlink:href="#8" y="4.342"/><use xlink:href="#9" y="6.513"/><use xlink:href="#10" y="8.684"/></svg><svg x="6307"><use xlink:href="#a"/><use xlink:href="#b" x="8.996" y="8.659"/><use xlink:href="#3"/><use xlink:href="#4" y="2.171"/><use xlink:href="#8" y="4.342"/><use xlink:href="#9" y="6.513"/><use xlink:href="#10" y="8.684"/></svg><svg x="6426"><use xlink:href="#a"/><use xlink:href="#b" x="9.996" y="8.659"/><use xlink:href="#3"/><use xlink:href="#4" y="2.171"/><use xlink:href="#8" y="4.342"/><use xlink:href="#9" y="6.513"/><use xlink:href="#11" y="8.684"/></svg><svg x="6545"><use xlink:href="#a"/><use xlink:href="#b" x="10.996" y="8.659"/><use xlink:href="#3"/><use xlink:href="#4" y="2.171"/><use xlink:href="#8" y="4.342"/><use xlink:href="#9" y="6.513"/><use xlink:href="#11" y="8.684"/></svg><svg x="6664"><use xlink:href="#a"/><use xlink:href="#b" x="11.996" y="8.659"/><use xlink:href="#3"/><use xlink:href="#4" y="2.171"/><use xlink:href="#8" y="4.342"/><use xlink:href="#9" y="6.513"/><text y="10.354" class="c">You:</text><text x="5.01" y="10.354" class="c">Cos&apos;è</text><text x="11.022" y="10.354" class="c">M</text></svg><svg x="6783"><use xlink:href="#a"/><use xlink:href="#b" x="12.996" y="8.659"/><use xlink:href="#3"/><use xlink:href="#4" y="2.171"/><use xlink:href="#8" y="4.342"/><use xlink:href="#9" y="6.513"/><text y="10.354" class="c">You:</text><text x="5.01" y="10.354" class="c">Cos&apos;è</text><text x="11.022" y="10.354" class="c">Me</text></svg><svg x="6902"><use xlink:href="#a"/><use xlink:href="#b" x="13.996" y="8.659"/><use xlink:href="#3"/><use xlink:href="#4" y="2.171"/><use xlink:href="#8" y="4.342"/><use xlink:href="#9" y="6.513"/><text y="10.354" class="c">You:</text><text x="5.01" y="10.354" class="c">Cos&apos;è</text><text x="11.022" y="10.354" class="c">Mem</text></svg><svg x="7021"><use xlink:href="#a"/><use xlink:href="#b" x="14.996" y="8.659"/><use xlink:href="#3"/><use xlink:href="#4" y="2.171"/><use xlink:href="#8" y="4.342"/><use xlink:href="#9" y="6.513"/><text y="10.354" class="c">You:</text><text x="5.01" y="10.354" class="c">Cos&apos;è</text><text x="11.022" y="10.354" class="c">Memo</text></svg><svg x="7140"><use xlink:href="#a"/><use xlink:href="#b" x="15.996" y="8.659"/><use xlink:href="#3"/><use xlink:href="#4" y="2.171"/><use xlink:href="#8" y="4.342"/><use xlink:href="#9" y="6.513"/><text y="10.354" class="c">You:</text><text x="5.01" y="10.354" class="c">Cos&apos;è</text><text x="11.022" y="10.354" class="c">Memor</text></svg><svg x="7259"><use xlink:href="#a"/><use xlink:href="#b" x="16.996" y="8.659"/><use xlink:href="#3"/><use xlink:href="#4" y="2.171"/><use xlink:href="#8" y="4.342"/><use xlink:href="#9" y="6.513"/><text y="10.354" class="c">You:</text><text x="5.01" y="10.354" class="c">Cos&apos;è</text><text x="11.022" y="10.354" class="c">Memori</text></svg><svg x="7378"><use xlink:href="#a"/><use xlink:href="#b" x="17.996" y="8.659"/><use xlink:href="#3"/><use xlink:href="#4" y="2.171"/><use xlink:href="#8" y="4.342"/><use xlink:href="#9" y="6.513"/><use xlink:href="#12" y="8.684"/></svg><svg x="7497"><use xlink:href="#a"/><use xlink:href="#b" x="-.004" y="10.83"/><use xlink:href="#3"/><use xlink:href="#4" y="2.171"/><use xlink:href="#8" y="4.342"/><use xlink:href="#9" y="6.513"/><use xlink:href="#12" y="8.684"/></svg><svg x="7616"><use xlink:href="#a"/><use xlink:href="#b" x="-.004" y="17.343"/><use xlink:href="#3"/><use xlink:href="#4" y="2.171"/><use xlink:href="#8" y="4.342"/><use xlink:href="#9" y="6.513"/><use xlink:href="#12" y="8.684"/><use xlink:href="#13" y="10.855"/><use xlink:href="#14" y="13.026"/><use xlink:href="#15" y="15.197"/></svg><svg x="7735"><use xlink:href="#a"/><use xlink:href="#b" x="4.996" y="17.343"/><use xlink:href="#3"/><use xlink:href="#4" y="2.171"/><use xlink:href="#8" y="4.342"/><use xlink:href="#9" y="6.513"/><use xlink:href="#12" y="8.684"/><use xlink:href="#13" y="10.855"/><use xlink:href="#14" y="13.026"/><use xlink:href="#15" y="15.197"/><use xlink:href="#5" y="17.368"/></svg><svg x="7854"><use xlink:href="#a"/><use xlink:href="#b" x="-.004" y="19.514"/><use xlink:href="#3"/><use xlink:href="#4" y="2.171"/><use xlink:href="#8" y="4.342"/><use xlink:href="#9" y="6.513"/><use xlink:href="#12" y="8.684"/><use xlink:href="#13" y="10.855"/><use xlink:href="#14" y="13.026"/><use xlink:href="#15" y="15.197"/><use xlink:href="#16" y="17.368"/></svg><svg x="7973"><use xlink:href="#a"/><use xlink:href="#b" x="-.004" y="19.514"/><use xlink:href="#3"/><use xlink:href="#4" y="2.171"/><use xlink:href="#8" y="4.342"/><use xlink:href="#9" y="6.513"/><use xlink:href="#12" y="8.684"/><use xlink:href="#13" y="10.855"/><use xlink:href="#14" y="13.026"/><use xlink:href="#15" y="15.197"/><use xlink:href="#16" y="17.368"/></svg><svg x="8092"><use xlink:href="#a"/><use xlink:href="#b" x="-.004" y="19.514"/><use xlink:href="#3"/><use xlink:href="#4" y="2.171"/><use xlink:href="#8" y="4.342"/><use xlink:href="#9" y="6.513"/><use xlink:href="#12" y="8.684"/><use xlink:href="#13" y="10.855"/><use xlink:href="#14" y="13.026"/><use xlink:href="#15" y="15.197"/><use xlink:href="#16" y="17.368"/></svg><svg x="8211"><use xlink:href="#a"/><use xlink:href="#b" x="-.004" y="19.514"/><use xlink:href="#3"/><use xlink:href="#4" y="2.171"/><use xlink:href="#8" y="4.342"/><use xlink:href="#9" y="6.513"/><use xlink:href="#12" y="8.684"/><use xlink:href="#13" y="10.855"/><use xlink:href="#14" y="13.026"/><use xlink:href="#15" y="15.197"/><use xlink:href="#16" y="17.368"/></svg><svg x="8330"><use xlink:href="#a"/><use xlink:href="#b" x="-.004" y="19.514"/><use xlink:href="#3"/><use xlink:href="#4" y="2.171"/><use xlink:href="#8" y="4.342"/><use xlink:href="#9" y="6.513"/><use xlink:href="#12" y="8.684"/><use xlink:href="#13" y="10.855"/><use xlink:href="#14" y="13.026"/><use xlink:href="#15" y="15.197"/><use xlink:href="#16" y="17.368"/></svg><svg x="8449"><use xlink:href="#a"/><use xlink:href="#b" x="-.004" y="19.514"/><use xlink:href="#3"/><use xlink:href="#4" y="2.171"/><use xlink:href="#8" y="4.342"/><use xlink:href="#9" y="6.513"/><use xlink:href="#12" y="8.684"/><use xlink:href="#13" y="10.855"/><use xlink:href="#14" y="13.026"/><use xlink:href="#15" y="15.197"/><use xlink:href="#16" y="17.368"/></svg><svg x="8568"><use xlink:href="#a"/><use xlink:href="#b" x="-.004" y="19.514"/><use xlink:href="#3"/><use xlink:href="#4" y="2.171"/><use xlink:href="#8" y="4.342"/><use xlink:href="#9" y="6.513"/><use xlink:href="#12" y="8.684"/><use xlink:href="#13" y="10.855"/><use xlink:href="#14" y="13.026"/><use xlink:href="#15" y="15.197"/><use xlink:href="#16" y="17.368"/></svg><svg x="8687"><use xlink:href="#a"/><use xlink:href="#b" x="-.004" y="19.514"/><use xlink:href="#3"/><use xlink:href="#4" y="2.171"/><use xlink:href="#8" y="4.342"/><use xlink:href="#9" y="6.513"/><use xlink:href="#12" y="8.684"/><use xlink:href="#13" y="10.855"/><use xlink:href="#14" y="13.026"/><use xlink:href="#15" y="15.197"/><use xlink:href="#16" y="17.368"/></svg><svg x="8806"><use xlink:href="#a"/><use xlink:href="#b" x="-.004" y="19.514"/><use xlink:href="#3"/><use xlink:href="#4" y="2.171"/><use xlink:href="#8" y="4.342"/><use xlink:href="#9" y="6.513"/><use xlink:href="#12" y="8.684"/><use xlink:href="#13" y="10.855"/><use xlink:href="#14" y="13.026"/><use xlink:href="#15" y="15.197"/><use xlink:href="#16" y="17.368"/></svg><svg x="8925"><use xlink:href="#a"/><use xlink:href="#b" x="-.004" y="19.514"/><use xlink:href="#3"/><use xlink:href="#4" y="2.171"/><use xlink:href="#8" y="4.342"/><use xlink:href="#9" y="6.513"/><use xlink:href="#12" y="8.684"/><use xlink:href="#13" y="10.855"/><use xlink:href="#14" y="13.026"/><use xlink:href="#15" y="15.197"/><use xlink:href="#16" y="17.368"/></svg><svg x="9044"><use xlink:href="#a"/><use xlink:href="#b" x="78.996" y="19.514"/><use xlink:href="#3"/><use xlink:href="#4" y="2.171"/><use xlink:href="#8" y="4.342"/><use xlink:href="#9" y="6.513"/><use xlink:href="#12" y="8.684"/><use xlink:href="#13" y="10.855"/><use xlink:href="#14" y="13.026"/><use xlink:href="#15" y="15.197"/><use xlink:href="#16" y="17.368"/><use xlink:href="#17" y="19.539"/></svg><svg x="9163"><use xlink:href="#a"/><use xlink:href="#b" x="78.996" y="19.514"/><use xlink:href="#3"/><use xlink:href="#4" y="2.171"/><use xlink:href="#8" y="4.342"/><use xlink:href="#9" y="6.513"/><use xlink:href="#12" y="8.684"/><use xlink:href="#13" y="10.855"/><use xlink:href="#14" y="13.026"/><use xlink:href="#15" y="15.197"/><use xlink:href="#16" y="17.368"/><use xlink:href="#17" y="19.539"/></svg><svg x="9282"><use xlink:href="#a"/><use xlink:href="#b" x="78.996" y="19.514"/><use xlink:href="#3"/><use xlink:href="#4" y="2.171"/><use xlink:href="#8" y="4.342"/><use xlink:href="#9" y="6.513"/><use xlink:href="#12" y="8.684"/><use xlink:href="#13" y="10.855"/><use xlink:href="#14" y="13.026"/><use xlink:href="#15" y="15.197"/><use xlink:href="#16" y="17.368"/><use xlink:href="#17" y="19.539"/></svg><svg x="9401"><use xlink:href="#a"/><use xlink:href="#b" x="-.004" y="21.685"/><use xlink:href="#3"/><use xlink:href="#4" y="2.171"/><use xlink:href="#8" y="4.342"/><use xlink:href="#9" y="6.513"/><use xlink:href="#12" y="8.684"/><use xlink:href="#13" y="10.855"/><use xlink:href="#14" y="13.026"/><use xlink:href="#15" y="15.197"/><use xlink:href="#16" y="17.368"/><use xlink:href="#17" y="19.539"/></svg></svg></g></g></svg></svg>